<svg version="1.1" id="Layer_1" xmlns="http://www.w3.org/2000/svg" xmlns:xlink="http://www.w3.org/1999/xlink" x="0px" y="0px"
	 width="100%" viewBox="0 0 496 496" enable-background="new 0 0 496 496" xml:space="preserve">
<path fill="#000000" opacity="1.000000" stroke="none" 
	d="
M230.949829,180.206848 
	C222.456665,180.198547 214.456497,180.117477 206.458542,180.216110 
	C203.115646,180.257339 201.637115,179.027924 201.657608,175.537216 
	C201.750534,159.705887 201.743484,143.873367 201.646866,128.042038 
	C201.627548,124.878593 202.695129,123.602913 205.970062,123.609489 
	C241.633392,123.681122 277.296906,123.650055 312.960358,123.670753 
	C314.930817,123.671898 317.283356,123.456306 317.251953,126.459175 
	C317.062836,144.539810 319.158966,162.802567 312.904785,180.404556 
	C311.054871,185.610977 308.706604,190.563400 305.808197,195.250824 
	C302.039581,201.345657 301.858276,207.253204 305.762146,213.496292 
	C313.362885,225.651352 316.612213,239.232391 317.197815,253.360199 
	C317.687408,265.172516 317.203644,277.022278 317.394226,288.851593 
	C317.456482,292.714325 316.152924,294.180908 312.239655,294.173828 
	C271.410095,294.100006 230.580246,294.107605 189.750687,294.196899 
	C185.899139,294.205322 184.499619,292.900452 184.546204,288.958527 
	C184.727386,273.628632 184.711456,258.294769 184.579926,242.964020 
	C184.547974,239.239349 185.523041,237.524139 189.616653,237.623276 
	C199.110260,237.853226 208.615921,237.830490 218.111053,237.635239 
	C222.135895,237.552475 223.359604,239.247086 223.260483,243.004135 
	C223.089127,249.498825 223.351929,256.005280 223.165375,262.499146 
	C223.038513,266.915283 224.860641,269.028534 229.282211,269.019623 
	C244.447174,268.989044 259.612213,268.981964 274.777222,268.995697 
	C279.112610,268.999634 281.431915,267.244659 281.970642,262.609314 
	C283.658142,248.090408 282.570496,233.835495 276.296997,220.623306 
	C270.624146,208.676163 270.477814,197.457245 276.417603,185.708237 
	C281.069183,176.507294 282.813202,166.485825 282.611969,156.188721 
	C282.486359,149.762177 280.963043,148.354355 274.504852,148.320236 
	C265.339722,148.271805 256.174042,148.285889 247.008789,148.317062 
	C240.860764,148.337982 240.382706,148.813858 240.349854,154.797699 
	C240.315094,161.130310 240.026566,167.482452 240.423569,173.789886 
	C240.743210,178.868469 238.997849,180.965302 233.940765,180.223846 
	C233.125122,180.104263 232.276886,180.206802 230.949829,180.206848 
z"/>
</svg>