<?xml version="1.0" encoding="UTF-8"?>
<svg version="1.1" xmlns="http://www.w3.org/2000/svg" width="500" height="500">
<path d="M0 0 C37.95 0.33 75.9 0.66 115 1 C115 48.33892617 115 48.33892617 109.625 61.8125 C109.20089844 62.87597656 108.77679688 63.93945312 108.33984375 65.03515625 C107.11300238 67.74994517 105.74002517 70.21230305 104.1875 72.75 C101.58970383 77.37107972 100.66170802 80.78216498 102 86 C103.75775821 90.16025399 105.90991494 94.12228904 108.0234375 98.109375 C119.34564011 119.74642948 115 149.13871927 115 171 C71.11 171 27.22 171 -18 171 C-18 152.52 -18 134.04 -18 115 C-5.13 115 7.74 115 21 115 C21.4375 129.4375 21.4375 129.4375 21.56811523 133.99780273 C21.60622314 135.17286377 21.64433105 136.3479248 21.68359375 137.55859375 C21.73858032 139.37315063 21.73858032 139.37315063 21.79467773 141.22436523 C21.68938266 143.90705456 21.68938266 143.90705456 23 145 C24.67708424 145.10397018 26.35852791 145.13852909 28.03881836 145.14526367 C29.11340805 145.15164352 30.18799774 145.15802338 31.29515076 145.16459656 C33.04977379 145.16626579 33.04977379 145.16626579 34.83984375 145.16796875 C36.62848595 145.17296135 36.62848595 145.17296135 38.45326233 145.17805481 C40.98112603 145.18312916 43.50899645 145.18546298 46.03686523 145.18530273 C49.91726654 145.1874886 53.79738346 145.20563757 57.67773438 145.22460938 C60.12760319 145.22754323 62.57747336 145.22952808 65.02734375 145.23046875 C66.19506821 145.23765427 67.36279266 145.24483978 68.56590271 145.25224304 C69.64364456 145.24916641 70.72138641 145.24608978 71.83178711 145.24291992 C72.78363388 145.24434494 73.73548065 145.24576996 74.71617126 145.24723816 C77.19794194 145.21998841 77.19794194 145.21998841 79 143 C79.37117353 140.23715186 79.61467367 137.58897381 79.75 134.8125 C79.78947754 134.00385498 79.82895508 133.19520996 79.86962891 132.36206055 C80.39914882 117.93901407 77.3976474 104.58134771 71.3828125 91.4765625 C66.89775325 80.20056608 70.63992977 70.27949635 74.99536133 59.72167969 C78.86423544 50.24653242 82.86200862 37.04122241 79 27 C75.77396455 25.38698227 72.25289962 25.87946401 68.7109375 25.90234375 C67.89251373 25.9037587 67.07408997 25.90517365 66.23086548 25.90663147 C63.61220675 25.9122371 60.99363296 25.92479052 58.375 25.9375 C56.60156373 25.94251428 54.82812613 25.94707731 53.0546875 25.95117188 C48.70309218 25.96220836 44.3515605 25.97947675 40 26 C38.96957053 29.44698827 38.80205297 32.70925282 38.68359375 36.296875 C38.64548584 37.38323242 38.60737793 38.46958984 38.56811523 39.58886719 C38.52501221 40.96204102 38.48190918 42.33521484 38.4375 43.75 C38.293125 48.1225 38.14875 52.495 38 57 C25.46 57 12.92 57 0 57 C-0.16647264 50.48963934 -0.32910433 43.9794081 -0.48217773 37.46875 C-0.53529714 35.25743256 -0.59059963 33.04616637 -0.64819336 30.83496094 C-0.73095059 27.64269053 -0.80565709 24.45031358 -0.87890625 21.2578125 C-0.90594131 20.28135773 -0.93297638 19.30490295 -0.96083069 18.29885864 C-0.98092697 17.35863861 -1.00102325 16.41841858 -1.02172852 15.44970703 C-1.04171402 14.6369632 -1.06169952 13.82421936 -1.08229065 12.98684692 C-0.96265568 8.64453912 -0.43223973 4.3223973 0 0 Z " fill="#F7F7F7" transform="translate(201,122)"/>
<path d="" fill="#000000" transform="translate(0,0)"/>
<path d="" fill="#000000" transform="translate(0,0)"/>
<path d="" fill="#000000" transform="translate(0,0)"/>
<path d="" fill="#000000" transform="translate(0,0)"/>
<path d="" fill="#000000" transform="translate(0,0)"/>
<path d="" fill="#000000" transform="translate(0,0)"/>
<path d="" fill="#000000" transform="translate(0,0)"/>
<path d="" fill="#000000" transform="translate(0,0)"/>
<path d="" fill="#000000" transform="translate(0,0)"/>
<path d="" fill="#000000" transform="translate(0,0)"/>
<path d="" fill="#000000" transform="translate(0,0)"/>
<path d="" fill="#000000" transform="translate(0,0)"/>
<path d="" fill="#000000" transform="translate(0,0)"/>
<path d="" fill="#000000" transform="translate(0,0)"/>
<path d="" fill="#000000" transform="translate(0,0)"/>
<path d="" fill="#000000" transform="translate(0,0)"/>
<path d="" fill="#000000" transform="translate(0,0)"/>
<path d="" fill="#000000" transform="translate(0,0)"/>
<path d="" fill="#000000" transform="translate(0,0)"/>
<path d="" fill="#000000" transform="translate(0,0)"/>
<path d="" fill="#000000" transform="translate(0,0)"/>
<path d="" fill="#000000" transform="translate(0,0)"/>
<path d="" fill="#000000" transform="translate(0,0)"/>
<path d="" fill="#000000" transform="translate(0,0)"/>
<path d="" fill="#000000" transform="translate(0,0)"/>
<path d="" fill="#000000" transform="translate(0,0)"/>
<path d="" fill="#000000" transform="translate(0,0)"/>
<path d="" fill="#000000" transform="translate(0,0)"/>
<path d="" fill="#000000" transform="translate(0,0)"/>
<path d="" fill="#000000" transform="translate(0,0)"/>
<path d="" fill="#000000" transform="translate(0,0)"/>
<path d="" fill="#000000" transform="translate(0,0)"/>
<path d="" fill="#000000" transform="translate(0,0)"/>
<path d="" fill="#000000" transform="translate(0,0)"/>
<path d="" fill="#000000" transform="translate(0,0)"/>
<path d="" fill="#000000" transform="translate(0,0)"/>
<path d="" fill="#000000" transform="translate(0,0)"/>
<path d="" fill="#000000" transform="translate(0,0)"/>
<path d="" fill="#000000" transform="translate(0,0)"/>
<path d="" fill="#000000" transform="translate(0,0)"/>
<path d="" fill="#000000" transform="translate(0,0)"/>
<path d="" fill="#000000" transform="translate(0,0)"/>
<path d="" fill="#000000" transform="translate(0,0)"/>
<path d="" fill="#000000" transform="translate(0,0)"/>
<path d="" fill="#000000" transform="translate(0,0)"/>
<path d="" fill="#000000" transform="translate(0,0)"/>
<path d="" fill="#000000" transform="translate(0,0)"/>
<path d="" fill="#000000" transform="translate(0,0)"/>
<path d="" fill="#000000" transform="translate(0,0)"/>
<path d="" fill="#000000" transform="translate(0,0)"/>
<path d="" fill="#000000" transform="translate(0,0)"/>
<path d="" fill="#000000" transform="translate(0,0)"/>
<path d="" fill="#000000" transform="translate(0,0)"/>
<path d="" fill="#000000" transform="translate(0,0)"/>
<path d="" fill="#000000" transform="translate(0,0)"/>
<path d="" fill="#000000" transform="translate(0,0)"/>
<path d="" fill="#000000" transform="translate(0,0)"/>
<path d="" fill="#000000" transform="translate(0,0)"/>
<path d="" fill="#000000" transform="translate(0,0)"/>
<path d="" fill="#000000" transform="translate(0,0)"/>
<path d="" fill="#000000" transform="translate(0,0)"/>
<path d="" fill="#000000" transform="translate(0,0)"/>
<path d="" fill="#000000" transform="translate(0,0)"/>
<path d="" fill="#000000" transform="translate(0,0)"/>
<path d="" fill="#000000" transform="translate(0,0)"/>
<path d="" fill="#000000" transform="translate(0,0)"/>
<path d="" fill="#000000" transform="translate(0,0)"/>
<path d="" fill="#000000" transform="translate(0,0)"/>
</svg>
